<svg width="59" height="72" viewBox="0 0 59 72" fill="none" xmlns="http://www.w3.org/2000/svg">
<path fill-rule="evenodd" clip-rule="evenodd" d="M28.4624 1.37825C27.8534 0.518178 26.8598 0 25.802 0C24.7443 0 23.7507 0.507494 23.1257 1.37825C16.5336 10.5772 0 34.798 0 46.214C0 60.4612 11.5495 72 25.786 72C40.0226 72 51.5881 60.4559 51.5881 46.214C51.5988 34.798 35.0598 10.5826 28.4624 1.37825ZM14.6212 56.6042C14.1831 57.1384 13.5367 57.4055 12.8957 57.4055C12.3828 57.4055 11.87 57.2293 11.448 56.8767C5.05357 51.4866 7.25449 43.5376 7.35599 43.1957C7.70322 41.9991 8.94257 41.3153 10.1392 41.6519C11.3411 41.9991 12.0249 43.2385 11.683 44.4297C11.6189 44.6915 10.2353 49.9694 14.3541 53.4311C15.2943 54.2377 15.4225 55.6587 14.6158 56.6042H14.6212Z" fill="#E10109"/>
<path fill-rule="evenodd" clip-rule="evenodd" d="M41.2352 3.58984C50.7387 3.58984 58.4365 11.2931 58.4365 20.7966C58.4365 30.3 50.7333 37.9979 41.2352 37.9979C31.737 37.9979 24.0285 30.2947 24.0285 20.7966C24.0285 11.2984 31.7317 3.58984 41.2352 3.58984Z" fill="#666666"/>
<path d="M52.7313 21.662V19.9311H45.7866V21.662H52.7313ZM35.2681 24.9259L34.8141 26.2721C34.6698 26.7155 34.4722 27.0521 34.2264 27.2871C33.9807 27.5222 33.6922 27.6397 33.361 27.6397C32.939 27.6397 32.5971 27.5008 32.3247 27.223C32.0522 26.9452 31.9187 26.598 31.9187 26.176C31.9187 26.005 31.9347 25.8501 31.9561 25.7005C31.9828 25.551 32.0148 25.4228 32.0683 25.2999L35.5246 15.9193C35.7756 15.2462 36.0908 14.7494 36.4648 14.4342C36.8387 14.119 37.3035 13.9587 37.8483 13.9587C38.3665 13.9587 38.8099 14.1083 39.1945 14.4128C39.5738 14.7173 39.8676 15.15 40.0706 15.7216L43.4415 25.2625C43.5056 25.4655 43.559 25.6418 43.591 25.802C43.6284 25.9623 43.6391 26.1012 43.6391 26.2241C43.6391 26.6461 43.5002 26.988 43.2171 27.2551C42.934 27.5222 42.5761 27.6504 42.1433 27.6504C41.7534 27.6504 41.4329 27.5275 41.1711 27.2871C40.9093 27.0414 40.7063 26.6728 40.5568 26.1706L40.1828 24.9366H35.2681V24.9259ZM36.1282 22.1427H39.3067L37.7736 17.2174L36.1336 22.1427H36.1282Z" fill="white"/>
</svg>
