<svg width="59" height="72" viewBox="0 0 59 72" fill="none" xmlns="http://www.w3.org/2000/svg">
<path fill-rule="evenodd" clip-rule="evenodd" d="M28.4624 1.37825C27.8534 0.518178 26.8598 0 25.802 0C24.7443 0 23.7507 0.507494 23.131 1.37825C16.5336 10.5772 0 34.798 0 46.214C0 60.4612 11.5548 72 25.786 72C40.0172 72 51.5881 60.4559 51.5881 46.214C51.5988 34.798 35.0598 10.5826 28.4624 1.37825ZM14.6212 56.6042C14.1831 57.1384 13.5421 57.4055 12.901 57.4055C12.3882 57.4055 11.8754 57.2293 11.448 56.8767C5.05891 51.4866 7.25983 43.5376 7.36133 43.1957C7.70856 41.9991 8.94792 41.3153 10.1445 41.6519C11.3411 41.9991 12.0303 43.2385 11.6884 44.4297C11.6243 44.6915 10.2407 49.9694 14.3594 53.4311C15.2996 54.2377 15.4278 55.6587 14.6265 56.6042H14.6212Z" fill="#E10109"/>
<path fill-rule="evenodd" clip-rule="evenodd" d="M41.2352 3.58984C50.7387 3.58984 58.4419 11.2931 58.4419 20.7966C58.4419 30.3 50.7387 37.9979 41.2352 37.9979C31.7317 37.9979 24.0285 30.2947 24.0285 20.7966C24.0285 11.2984 31.7317 3.58984 41.2352 3.58984Z" fill="#666666"/>
<path fill-rule="evenodd" clip-rule="evenodd" d="M35.2735 24.9259L34.8194 26.2721C34.6698 26.7155 34.4775 27.0521 34.2318 27.2871C33.9861 27.5222 33.6976 27.6397 33.3664 27.6397C32.9444 27.6397 32.6025 27.5008 32.33 27.223C32.0576 26.9452 31.924 26.598 31.924 26.176C31.924 26.005 31.9401 25.8501 31.9614 25.7005C31.9881 25.551 32.0202 25.4228 32.0736 25.2999L35.5299 15.9193C35.781 15.2462 36.0908 14.7494 36.4701 14.4342C36.844 14.119 37.3035 13.9587 37.8537 13.9587C38.3719 13.9587 38.8206 14.1083 39.1999 14.4128C39.5792 14.7173 39.873 15.15 40.0813 15.7216L43.4468 25.2625C43.5163 25.4655 43.5643 25.6418 43.6017 25.802C43.6338 25.9623 43.6498 26.1012 43.6498 26.2241C43.6498 26.6461 43.5109 26.988 43.2331 27.2551C42.95 27.5222 42.5921 27.6504 42.154 27.6504C41.7641 27.6504 41.4435 27.5275 41.1818 27.2871C40.9254 27.0414 40.717 26.6728 40.5675 26.1706L40.1935 24.9366H35.2842L35.2735 24.9259ZM50.1137 24.2635V21.6673H52.7366V19.9418H50.1137V17.3349H48.4149V19.9418H45.792V21.6673H48.4149V24.2635H50.1137ZM36.1336 22.1427H39.3067L37.7736 17.2174L36.1336 22.1427Z" fill="white"/>
</svg>
