<svg width="59" height="72" viewBox="0 0 59 72" fill="none" xmlns="http://www.w3.org/2000/svg">
<path fill-rule="evenodd" clip-rule="evenodd" d="M28.4645 1.37835C27.8555 0.518216 26.8618 0 25.804 0C24.7462 0 23.7525 0.507531 23.1274 1.37835C16.5348 10.578 0 34.8006 0 46.2121C0 60.4603 11.5557 72 25.7879 72C40.0202 72 51.5919 60.4603 51.5919 46.2121C51.6026 34.7953 35.0624 10.578 28.4645 1.37835ZM14.6222 56.6084C14.1842 57.1427 13.5377 57.4098 12.8966 57.4098C12.3838 57.4098 11.8709 57.2335 11.4435 56.8809C5.05394 51.4904 7.24968 43.5355 7.35653 43.1989C7.70379 42.0022 8.94324 41.3131 10.1399 41.655C11.3366 42.0022 12.0258 43.2417 11.6839 44.433C11.6198 44.6948 10.2361 49.9678 14.3551 53.435C15.2954 54.2417 15.4236 55.6628 14.6169 56.6084H14.6222Z" fill="#E10109"/>
<path fill-rule="evenodd" clip-rule="evenodd" d="M41.2382 3.59009C50.7424 3.59009 58.4462 11.2939 58.4462 20.7981C58.4462 30.3023 50.7424 38.0061 41.2382 38.0061C31.7341 38.0061 24.0303 30.3023 24.0303 20.7981C24.0303 11.2939 31.7341 3.59009 41.2382 3.59009Z" fill="#666666"/>
<path d="M54.6531 21.6636V19.938H47.7079V21.6636H54.6531ZM41.0245 19.6495H42.0129C42.3655 19.6495 42.6433 19.5587 42.857 19.3771C43.0707 19.1901 43.1775 18.9497 43.1775 18.6505C43.1775 18.3513 43.0707 18.0949 42.857 17.9079C42.6433 17.7263 42.3494 17.6355 41.9915 17.6355H41.0299V19.6549L41.0245 19.6495ZM41.0245 23.9342H42.1999C42.7234 23.9342 43.1188 23.8327 43.3912 23.635C43.669 23.4373 43.8026 23.1488 43.8026 22.7642C43.8026 22.3795 43.669 22.0804 43.4019 21.888C43.1348 21.701 42.7234 21.6049 42.1678 21.6049H41.0299V23.9288L41.0245 23.9342ZM40.2659 25.9536C39.6569 25.9536 39.2401 25.8521 39.0158 25.6438C38.786 25.4354 38.6739 25.0454 38.6739 24.4738V17.2829C38.6739 16.6524 38.7967 16.2197 39.0371 15.9846C39.2775 15.7442 39.6996 15.6267 40.298 15.6267H42.2319C43.2577 15.6267 44.0483 15.8511 44.6146 16.3052C45.1809 16.754 45.4587 17.3897 45.4587 18.1964C45.4587 18.7039 45.3519 19.1206 45.1489 19.4519C44.9405 19.7831 44.62 20.0449 44.1819 20.2319C44.855 20.3975 45.3733 20.7074 45.7365 21.1561C46.0945 21.6102 46.2761 22.1765 46.2761 22.8497C46.2761 23.822 45.9556 24.586 45.3038 25.1309C44.6574 25.6812 43.7598 25.9536 42.6005 25.9536H40.2712H40.2659ZM31.2799 24.009L30.9273 25.0561C30.8151 25.398 30.6602 25.6651 30.4679 25.8468C30.2755 26.0284 30.0512 26.1192 29.8001 26.1192C29.4742 26.1192 29.2071 26.0124 28.9934 25.7987C28.785 25.585 28.6782 25.3125 28.6782 24.9866C28.6782 24.8584 28.6888 24.7302 28.7049 24.618C28.7262 24.5058 28.7529 24.399 28.7903 24.3082L31.4776 17.0157C31.6699 16.4922 31.9157 16.1075 32.2095 15.8564C32.498 15.6107 32.8559 15.4878 33.2833 15.4878C33.684 15.4878 34.0313 15.6053 34.3305 15.8404C34.6243 16.0755 34.854 16.4174 35.0143 16.8555L37.6321 24.2654C37.6855 24.4257 37.7229 24.5646 37.7496 24.6875C37.7763 24.8103 37.787 24.9172 37.787 25.0134C37.787 25.3392 37.6748 25.6064 37.4611 25.8147C37.2474 26.0177 36.9643 26.1192 36.6277 26.1192C36.3232 26.1192 36.0721 26.0231 35.8691 25.8361C35.6661 25.6491 35.5111 25.3606 35.3936 24.9706L35.0998 24.0143H31.2799V24.009ZM31.9477 21.8453H34.4159L33.2246 18.0148L31.9477 21.8453Z" fill="white"/>
</svg>
