<svg width="59" height="72" viewBox="0 0 59 72" fill="none" xmlns="http://www.w3.org/2000/svg">
<path fill-rule="evenodd" clip-rule="evenodd" d="M28.4645 1.37835C27.8555 0.518216 26.8618 0 25.804 0C24.7462 0 23.7525 0.507531 23.1327 1.37835C16.5348 10.578 0 34.8006 0 46.2121C0 60.4603 11.5557 72 25.7879 72C40.0202 72 51.5866 60.4603 51.5866 46.2121C51.5972 34.7953 35.0571 10.578 28.4592 1.37835H28.4645ZM14.6222 56.6084C14.1842 57.1427 13.5377 57.4098 12.8966 57.4098C12.3838 57.4098 11.8709 57.2335 11.4435 56.8809C5.05394 51.4904 7.24968 43.5355 7.35653 43.1989C7.70379 42.0022 8.94324 41.3131 10.1399 41.655C11.342 42.0022 12.0258 43.2417 11.6839 44.433C11.6198 44.6948 10.2361 49.9678 14.3551 53.435C15.3007 54.2417 15.4236 55.6628 14.6222 56.6084Z" fill="#E10109"/>
<path fill-rule="evenodd" clip-rule="evenodd" d="M41.2382 3.59009C50.7424 3.59009 58.4462 11.2939 58.4462 20.7981C58.4462 30.3023 50.7424 38.0061 41.2382 38.0061C31.7341 38.0061 24.0303 30.3023 24.0303 20.7981C24.0303 11.2939 31.7341 3.59009 41.2382 3.59009Z" fill="#666666"/>
<path d="M51.8537 24.26V21.6636H54.4821V19.938H51.8537V17.3309H50.1548V19.938H47.5316V21.6636H50.1548V24.26H51.8537ZM40.923 19.6442H41.9114C42.264 19.6442 42.5418 19.5534 42.7555 19.3717C42.9692 19.1847 43.076 18.9443 43.076 18.6451C43.076 18.346 42.9692 18.0895 42.7555 17.9025C42.5418 17.7209 42.248 17.6301 41.8847 17.6301H40.923V19.6495V19.6442ZM40.923 23.9288H42.1037C42.6273 23.9288 43.0226 23.8273 43.2951 23.6296C43.5675 23.432 43.7011 23.1435 43.7011 22.7588C43.7011 22.3742 43.5675 22.075 43.3004 21.8827C43.0333 21.6957 42.6219 21.5995 42.061 21.5995H40.923V23.9235V23.9288ZM40.1644 25.9483C39.5554 25.9483 39.1387 25.8467 38.9143 25.6384C38.6846 25.43 38.5724 25.04 38.5724 24.4684V17.2775C38.5724 16.6471 38.6952 16.2143 38.9303 15.9793C39.1707 15.7389 39.5928 15.6213 40.1965 15.6213H42.1304C43.1562 15.6213 43.9469 15.8457 44.5132 16.2998C45.0795 16.7486 45.3573 17.3843 45.3573 18.191C45.3573 18.6986 45.2558 19.1153 45.0474 19.4465C44.839 19.7777 44.5185 20.0395 44.0804 20.2265C44.7536 20.3921 45.2718 20.702 45.6351 21.1507C45.993 21.6049 46.1747 22.1712 46.1747 22.8443C46.1747 23.8166 45.8541 24.5806 45.2023 25.1255C44.5559 25.6758 43.653 25.9483 42.4991 25.9483H40.1698H40.1644ZM31.1784 24.0036L30.8258 25.0507C30.7136 25.3926 30.5587 25.6598 30.3664 25.8414C30.1794 26.023 29.9497 26.1139 29.6986 26.1139C29.3727 26.1139 29.1056 26.007 28.8919 25.7933C28.6782 25.5796 28.5767 25.3072 28.5767 24.9813C28.5767 24.8531 28.5874 24.7248 28.6034 24.6126C28.6248 24.5005 28.6515 24.3936 28.6889 24.3028L31.3761 17.0104C31.5684 16.4868 31.8142 16.1021 32.108 15.8511C32.3965 15.6053 32.7545 15.4824 33.1819 15.4824C33.5825 15.4824 33.9298 15.6 34.229 15.835C34.5228 16.0701 34.7525 16.412 34.9128 16.8501L37.5306 24.26C37.584 24.4203 37.6214 24.5592 37.6481 24.6821C37.6748 24.805 37.6855 24.9118 37.6855 25.008C37.6855 25.3339 37.5787 25.601 37.3596 25.8094C37.1406 26.0124 36.8628 26.1139 36.5262 26.1139C36.2217 26.1139 35.9706 26.0177 35.7676 25.8307C35.5646 25.6437 35.4096 25.3552 35.2921 24.9652L35.0036 24.0089H31.1838L31.1784 24.0036ZM31.8462 21.8399H34.3145L33.1231 18.0094L31.8516 21.8399H31.8462Z" fill="white"/>
</svg>
