<svg width="59" height="72" viewBox="0 0 59 72" fill="none" xmlns="http://www.w3.org/2000/svg">
<path fill-rule="evenodd" clip-rule="evenodd" d="M28.4624 1.37825C27.8534 0.518178 26.8598 0 25.802 0C24.7443 0 23.7507 0.507494 23.131 1.37825C16.5336 10.5772 0 34.798 0 46.214C0 60.4612 11.5548 72 25.786 72C40.0172 72 51.5881 60.4559 51.5881 46.214C51.5988 34.798 35.0598 10.5826 28.4624 1.37825ZM14.6212 56.6042C14.1831 57.1384 13.5367 57.4055 12.8957 57.4055C12.3828 57.4055 11.87 57.2293 11.4426 56.8767C5.05357 51.4866 7.25449 43.5376 7.35599 43.1957C7.70322 41.9991 8.94257 41.3153 10.1392 41.6519C11.3358 41.9991 12.0249 43.2385 11.683 44.4297C11.6189 44.6915 10.23 49.9694 14.3541 53.4311C15.2996 54.2377 15.4225 55.6587 14.6212 56.6042Z" fill="#E10109"/>
<path fill-rule="evenodd" clip-rule="evenodd" d="M41.2352 3.58984C50.7387 3.58984 58.4419 11.2931 58.4419 20.7966C58.4419 30.3 50.7387 37.9979 41.2352 37.9979C31.7317 37.9979 24.0285 30.2947 24.0285 20.7966C24.0285 11.2984 31.737 3.58984 41.2352 3.58984Z" fill="#666666"/>
<path d="M52.7367 21.662V19.9312H45.792V21.662H52.7367ZM36.3366 19.3329H37.6027C38.0567 19.3329 38.4147 19.2154 38.6924 18.975C38.9649 18.7399 39.1038 18.4248 39.1038 18.0455C39.1038 17.6662 38.9649 17.3296 38.6871 17.0892C38.4093 16.8542 38.0354 16.7367 37.5706 16.7367H36.3366V19.3382V19.3329ZM36.3366 24.8459H37.8484C38.5162 24.8459 39.029 24.7177 39.3762 24.4613C39.7288 24.2048 39.9051 23.8309 39.9051 23.3394C39.9051 22.848 39.7341 22.4633 39.3869 22.2176C39.045 21.9772 38.5162 21.8543 37.795 21.8543H36.3313V24.8459H36.3366ZM35.359 27.4421C34.5737 27.4421 34.0342 27.3086 33.7457 27.0415C33.4519 26.769 33.3077 26.2722 33.3077 25.535V16.2826C33.3077 15.4706 33.4626 14.915 33.7724 14.6105C34.0823 14.306 34.6271 14.1511 35.3964 14.1511H37.8858C39.2053 14.1511 40.2256 14.4396 40.9468 15.0219C41.6733 15.6042 42.0312 16.4161 42.0312 17.4525C42.0312 18.1042 41.8977 18.6438 41.6306 19.0658C41.3635 19.4932 40.9468 19.8297 40.3859 20.0701C41.2513 20.2838 41.9244 20.6791 42.3838 21.2614C42.8485 21.8437 43.0783 22.5702 43.0783 23.4409C43.0783 24.691 42.6669 25.6739 41.8336 26.3791C41.0002 27.0842 39.841 27.4368 38.3505 27.4368H35.359V27.4421Z" fill="white"/>
</svg>
