<svg width="59" height="72" viewBox="0 0 59 72" fill="none" xmlns="http://www.w3.org/2000/svg">
<path fill-rule="evenodd" clip-rule="evenodd" d="M28.457 1.37825C27.848 0.518178 26.8544 0 25.7967 0C24.739 0 23.7454 0.507494 23.1257 1.37825C16.5336 10.5772 0 34.798 0 46.214C0 60.4612 11.5548 72 25.786 72C40.0172 72 51.5881 60.4559 51.5881 46.214C51.5988 34.798 35.0598 10.5826 28.4624 1.37825H28.457ZM14.6158 56.6042C14.1778 57.1384 13.5314 57.4055 12.8957 57.4055C12.3828 57.4055 11.87 57.2293 11.4426 56.8767C5.05357 51.4866 7.24915 43.5376 7.35599 43.1957C7.69788 41.9991 8.94257 41.3153 10.1392 41.6519C11.3358 41.9991 12.0249 43.2385 11.683 44.4297C11.6189 44.6915 10.23 49.9694 14.3541 53.4311C15.2996 54.2377 15.4225 55.6587 14.6212 56.6042H14.6158Z" fill="#E10109"/>
<path fill-rule="evenodd" clip-rule="evenodd" d="M41.2352 3.58984C50.7387 3.58984 58.4419 11.2931 58.4419 20.7966C58.4419 30.3 50.7387 37.9979 41.2352 37.9979C31.7317 37.9979 24.0285 30.2947 24.0285 20.7966C24.0285 11.2984 31.7317 3.58984 41.2352 3.58984Z" fill="#666666"/>
<path d="M50.1083 24.2582V21.662H52.7365V19.9365H50.1083V17.3296H48.4095V19.9365H45.7866V21.662H48.4095V24.2582H50.1083ZM36.0854 19.3275H37.3515C37.8055 19.3275 38.1635 19.21 38.4412 18.9696C38.7137 18.7346 38.8526 18.4194 38.8526 18.0401C38.8526 17.6608 38.7137 17.3243 38.4359 17.0839C38.1581 16.8488 37.7842 16.7313 37.3194 16.7313H36.0854V19.3329V19.3275ZM36.0854 24.8405H37.5972C38.265 24.8405 38.7778 24.7123 39.1304 24.4559C39.4829 24.1995 39.6539 23.8255 39.6539 23.3341C39.6539 22.8426 39.4829 22.458 39.1357 22.2122C38.7938 21.9718 38.265 21.849 37.5438 21.849H36.0854V24.8405ZM35.1078 27.4367C34.3279 27.4367 33.783 27.3032 33.4945 27.0361C33.2007 26.7636 33.0565 26.2668 33.0565 25.5296V16.2772C33.0565 15.4652 33.2114 14.9097 33.5212 14.6052C33.8311 14.3007 34.376 14.1458 35.1452 14.1458H37.6346C38.9541 14.1458 39.9691 14.4342 40.7009 15.0165C41.4274 15.5988 41.7854 16.4108 41.7854 17.4471C41.7854 18.0989 41.6518 18.6384 41.3847 19.0604C41.1176 19.4878 40.7009 19.8243 40.14 20.0647C41.0054 20.2784 41.6732 20.6737 42.1379 21.256C42.6027 21.8383 42.8324 22.5648 42.8324 23.4356C42.8324 24.6856 42.4211 25.6685 41.5877 26.3737C40.7543 27.0788 39.5951 27.4314 38.1047 27.4314H35.1078V27.4367Z" fill="white"/>
</svg>
