<svg width="59" height="72" viewBox="0 0 59 72" fill="none" xmlns="http://www.w3.org/2000/svg">
<path fill-rule="evenodd" clip-rule="evenodd" d="M28.4645 1.37835C27.8555 0.518216 26.8618 0 25.804 0C24.7462 0 23.7525 0.507531 23.1327 1.37835C16.5295 10.578 0 34.8006 0 46.2121C0 60.4603 11.5557 72 25.7879 72C40.0202 72 51.5919 60.4603 51.5919 46.2121C51.6026 34.7953 35.0624 10.578 28.4645 1.37835ZM14.6222 56.6084C14.1842 57.1427 13.5377 57.4098 12.8966 57.4098C12.3838 57.4098 11.8709 57.2335 11.4435 56.8809C5.05394 51.4904 7.25503 43.5355 7.35653 43.1989C7.70379 42.0022 8.94324 41.3131 10.1399 41.655C11.3366 42.0022 12.0258 43.2417 11.6839 44.433C11.6198 44.6948 10.2308 49.9678 14.3551 53.435C15.3007 54.2417 15.4236 55.6628 14.6222 56.6084Z" fill="#E10109"/>
<path fill-rule="evenodd" clip-rule="evenodd" d="M41.2382 3.59009C50.7424 3.59009 58.4462 11.2939 58.4462 20.7981C58.4462 30.3023 50.7424 38.0061 41.2382 38.0061C31.7341 38.0061 24.0303 30.3023 24.0303 20.7981C24.0303 11.2939 31.7341 3.59009 41.2382 3.59009Z" fill="#666666"/>
<path d="M53.6327 21.6635V19.9379H46.6822V21.6635H53.6327ZM35.4738 20.8354C35.4738 22.0748 35.7676 23.0632 36.3553 23.8111C36.9483 24.5537 37.7283 24.9277 38.7059 24.9277C39.6836 24.9277 40.4636 24.5537 41.0566 23.8111C41.6496 23.0685 41.9434 22.0748 41.9434 20.8354C41.9434 19.596 41.6496 18.5328 41.0673 17.7795C40.4796 17.0262 39.6943 16.6469 38.7059 16.6469C37.7176 16.6469 36.9322 17.0209 36.3499 17.7795C35.7676 18.5328 35.4738 19.5532 35.4738 20.8354ZM32.1828 20.798C32.1828 18.6984 32.7812 17.0049 33.9832 15.712C35.1853 14.4191 36.7613 13.7727 38.7059 13.7727C40.6506 13.7727 42.2373 14.4191 43.4393 15.7174C44.6467 17.0102 45.2451 18.7091 45.2451 20.8033C45.2451 22.8976 44.6467 24.6072 43.4447 25.8947C42.2426 27.1876 40.6613 27.8287 38.7006 27.8287C36.7399 27.8287 35.1639 27.1822 33.9672 25.8947C32.7758 24.6072 32.1775 22.9083 32.1775 20.8033L32.1828 20.798Z" fill="white"/>
</svg>
