<svg width="59" height="72" viewBox="0 0 59 72" fill="none" xmlns="http://www.w3.org/2000/svg">
<path fill-rule="evenodd" clip-rule="evenodd" d="M28.4645 1.37835C27.8555 0.518216 26.8618 0 25.804 0C24.7462 0 23.7471 0.507531 23.1327 1.37835C16.5348 10.578 0 34.8006 0 46.2121C0 60.4603 11.5557 72 25.7933 72C40.0309 72 51.5919 60.4603 51.5919 46.2121C51.6026 34.7953 35.0624 10.578 28.4645 1.37835ZM14.6222 56.6084C14.1842 57.1427 13.5431 57.4098 12.902 57.4098C12.3891 57.4098 11.8762 57.2335 11.4488 56.8809C5.05929 51.4904 7.25503 43.5355 7.35653 43.1989C7.70379 42.0022 8.94324 41.3131 10.1399 41.655C11.3366 42.0022 12.0258 43.2417 11.6839 44.433C11.6198 44.6948 10.2361 49.9678 14.3551 53.435C15.3007 54.2417 15.4236 55.6628 14.6222 56.6084Z" fill="#E10109"/>
<path fill-rule="evenodd" clip-rule="evenodd" d="M41.2382 3.59009C50.7424 3.59009 58.4462 11.2939 58.4462 20.7981C58.4462 30.3023 50.7424 38.0061 41.2382 38.0061C31.7341 38.0061 24.0303 30.3023 24.0303 20.7981C24.0303 11.2939 31.7394 3.59009 41.2382 3.59009Z" fill="#666666"/>
<path d="M51.0096 24.2599V21.6635H53.6327V19.9379H51.0096V17.3308H49.3107V19.9379H46.6875V21.6635H49.3107V24.2599H51.0096ZM35.4738 20.8354C35.4738 22.0748 35.7729 23.0632 36.3606 23.8111C36.9483 24.5537 37.7336 24.9277 38.7059 24.9277C39.6783 24.9277 40.4636 24.5537 41.0513 23.8111C41.6389 23.0632 41.9381 22.0748 41.9381 20.8354C41.9381 19.596 41.6443 18.5328 41.062 17.7795C40.4743 17.0262 39.689 16.6469 38.7006 16.6469C37.7123 16.6469 36.9323 17.0262 36.3446 17.7795C35.7623 18.5328 35.4684 19.5532 35.4684 20.8354H35.4738ZM32.1882 20.798C32.1882 18.6984 32.7865 17.0049 33.9886 15.712C35.1906 14.4191 36.7613 13.7727 38.7113 13.7727C40.6613 13.7727 42.2426 14.4191 43.4447 15.7174C44.6467 17.0102 45.2504 18.7091 45.2504 20.798C45.2504 22.8869 44.6467 24.6018 43.45 25.8893C42.248 27.1822 40.6666 27.8233 38.7113 27.8233C36.756 27.8233 35.1746 27.1769 33.9832 25.8893C32.7919 24.6018 32.1935 22.9029 32.1935 20.798H32.1882Z" fill="white"/>
</svg>
